<svg xmlns="http://www.w3.org/2000/svg" viewBox="0 0 512 512" width="512" height="512"><path fill="#515262" d="M410.963 305.366c-44.388 2.547-83.238-21.934-101.872-58.467-4.113-8.065-10.972-14.403-19.568-17.248l-.32-.106c-7.309-2.409-14.612 3.822-13.466 11.432a288.276 288.276 0 0 0 11.714 48.63c2.847 8.504 9.072 15.33 17.069 19.39 36.635 18.595 61.202 57.501 58.652 101.964-3.116 54.352-48.333 98.754-102.731 100.947-61.312 2.473-111.796-46.5-111.796-107.264 0-41.859 24.002-78.026 58.963-95.713 7.926-4.01 14.078-10.788 16.902-19.21a288.433 288.433 0 0 0 11.753-48.744c1.145-7.61-6.157-13.84-13.466-11.432l-.33.11c-8.589 2.842-15.442 9.173-19.552 17.233-18.631 36.54-57.485 61.024-101.876 58.477C46.685 302.247 2.283 257.031.091 202.632-2.38 141.32 46.593 90.837 107.356 90.837c41.721 0 77.789 23.845 95.538 58.62 4.13 8.091 11.015 14.444 19.638 17.296l.301.1c7.313 2.408 14.596-3.827 13.465-11.443-7.579-51-28.485-97.642-59.059-136.298C171.123 11.38 176.787 0 186.647 0h138.708c9.86 0 15.525 11.38 9.408 19.113-30.574 38.656-51.48 85.298-59.059 136.298-1.132 7.616 6.152 13.852 13.465 11.442l.301-.099c8.624-2.85 15.51-9.206 19.638-17.296 17.749-34.774 53.816-58.62 95.538-58.62 60.763 0 109.737 50.483 107.265 111.795-2.193 54.397-46.596 99.615-100.948 102.734z"/><path fill="#464655" d="M70.78 202.634c1.787 44.321 31.599 82.533 71.976 96.861a107.156 107.156 0 0 1-41.719 5.873C46.684 302.25 2.282 257.033.09 202.634-2.381 141.322 46.592 90.84 107.355 90.84c12.421 0 24.323 2.156 35.407 6.042-43.25 15.067-73.95 56.93-71.982 105.753zm161.505 131.682c-5.12 17.164-12.95 51.12-12.95 70.33 0 53.21 30.071 86.59 71.927 101.24-9.756 3.466-20.098 5.591-30.82 6.024-61.314 2.473-111.797-46.5-111.797-107.263 0-40.063 22.015-74.867 54.554-93.29 1.458-.826 2.909-1.663 4.409-2.422 7.928-4.01 14.079-10.788 16.902-19.21a288.243 288.243 0 0 0 11.753-48.744c.986-6.547-4.29-12.039-10.435-11.919l.023-.083c2.501-.869 18.016-2.573 21.325 7.721 3.211 9.987-1.839 53.863-14.891 97.616zm178.678-28.948c-44.388 2.547-83.238-21.934-101.872-58.467-4.113-8.066-10.972-14.403-19.568-17.248-.107-.035-2.439-.624-3.466-.634 0 0 39.985-5.557 71.973 36.91 18.865 25.044 39.158 35.297 64.92 37.975-3.938.69-7.923 1.23-11.987 1.464zm0-214.338c-44.388-2.547-83.238 21.934-101.872 58.467-4.113 8.066-10.972 14.403-19.568 17.248-.107.035-2.439.624-3.466.634 0 0 39.985 5.557 71.973-36.91 18.865-25.044 39.158-35.297 64.92-37.975-3.938-.689-7.923-1.23-11.987-1.464zM229.495 19.113c13.637 34.297 27.425 130.261 4.062 144.882 0 0 3.237-5.23 2.739-8.585-7.579-51-28.485-97.642-59.059-136.298C171.121 11.38 176.785 0 186.645 0h52.256c-9.859.001-13.049 9.952-9.406 19.114z"/></svg>