<svg xmlns="http://www.w3.org/2000/svg" viewBox="0 0 512 512" width="512" height="512"><path fill="#ff6464" d="M270.358 7.083c61.426 79.451 155.086 173.126 234.523 234.56 9.441 7.302 9.441 21.411 0 28.712-79.436 61.434-173.098 155.111-234.523 234.56-7.302 9.444-21.415 9.444-28.716 0C180.216 425.466 86.555 331.791 7.118 270.356c-9.441-7.302-9.441-21.411 0-28.712C86.555 180.21 180.216 86.534 241.641 7.084c7.302-9.445 21.415-9.445 28.717-.001z"/><path fill="#d2555a" d="M253.791 504.917c-28.33-79.45-71.527-173.126-108.164-234.56-4.355-7.302-4.355-21.411 0-28.712 36.637-61.435 79.834-155.111 108.164-234.56 1.408-3.948 4.279-5.682 6.744-6.451-6.705-1.734-14.199.38-18.894 6.451C180.216 86.533 86.555 180.209 7.118 241.643c-9.441 7.302-9.441 21.41 0 28.712 79.436 61.434 173.098 155.111 234.523 234.56 4.693 6.07 12.188 8.185 18.893 6.451-2.465-.768-5.336-2.502-6.743-6.449z"/></svg>