<svg xmlns="http://www.w3.org/2000/svg" viewBox="0 0 512 512" width="512" height="512"><path fill="#ff6464" d="M241.641 6.084C180.215 85.535 86.555 179.21 7.118 240.644c-9.441 7.302-9.441 21.411 0 28.712 79.436 61.434 173.098 155.111 234.523 234.56 7.302 9.444 21.415 9.444 28.716 0 61.426-79.449 155.087-173.124 234.524-234.559 9.441-7.302 9.441-21.411 0-28.712-79.437-61.434-173.098-155.11-234.523-234.56-7.302-9.445-21.415-9.445-28.717-.001z"/><path fill="#d2555a" d="M256.781 503.918c28.33-79.45 71.527-173.126 108.164-234.56 4.355-7.302 4.355-21.411 0-28.712-36.637-61.435-79.834-155.111-108.164-234.56-1.408-3.948-4.279-5.682-6.744-6.451 6.705-1.734 14.2.38 18.894 6.451 61.425 79.448 155.086 173.124 234.523 234.558 9.441 7.302 9.441 21.41 0 28.712-79.436 61.434-173.098 155.111-234.523 234.56-4.693 6.07-12.188 8.185-18.893 6.451 2.465-.768 5.336-2.502 6.743-6.449z"/></svg>