<svg xmlns="http://www.w3.org/2000/svg" viewBox="0 0 512 512" width="512" height="512"><path fill="#ff6464" d="M512 344.315c0 77.985-62.854 141.202-140.387 141.202-38.429 0-73.223-15.553-98.561-40.723-9.395-9.333-24.708-9.333-34.104 0-25.337 25.17-60.131 40.723-98.56 40.723C62.854 485.517 0 422.3 0 344.315 0 198.48 187.788 65.813 241.693 30.736a26.19 26.19 0 0 1 28.614 0C324.212 65.814 512 198.48 512 344.316"/><path fill="#d2555a" d="M314.519 473.198c17.453 7.849 36.734 12.319 57.094 12.319C449.146 485.517 512 422.3 512 344.315c0-145.834-187.788-278.5-241.694-313.579A26.197 26.197 0 0 0 256 26.483c191.849 261.879 123.586 408.427 58.519 446.715z"/></svg>