<svg xmlns="http://www.w3.org/2000/svg" viewBox="0 0 496 496" width="496" height="496"><path fill="#ffa64d" d="M80 415.99l40 72 40-72zm80 0l40 72 40-72zm80 0l40 72 40-72zm96 0l40 72 40-72z"/><g fill="#333"><path d="M150.696 343.496c-36.96 5.688-68.048 32.424-79.2 68.112L45.12 496h405.76l-26.376-84.392c-11.152-35.688-42.24-62.424-79.2-68.112L304 337.144v-1.272c11.4-4.76 21.952-11.48 31.08-20.04C340.952 323.184 349.88 328 360 328c6.832 0 13.44-2.2 18.88-6.176C385.024 325.68 392.232 328 400 328c22.056 0 40-17.944 40-40 0-13.232-10.768-24-24-24s-24 10.768-24 24v8h16v-8c0-4.408 3.592-8 8-8s8 3.592 8 8c0 13.232-10.768 24-24 24s-24-10.768-24-24v-33.472c9.288-3.312 16-12.112 16-22.528v-63.208L425.76 0H70.24L104 168.8v63.208c0 10.416 6.712 19.216 16 22.528v33.472c0 13.232-10.768 24-24 24s-24-10.768-24-24c0-4.408 3.592-8 8-8s8 3.592 8 8v8h16v-8c0-13.232-10.768-24-24-24s-24 10.768-24 24c0 22.056 17.944 40 40 40 7.776 0 14.976-2.32 21.12-6.176a32.074 32.074 0 0 0 18.88 6.176c10.12 0 19.048-4.816 24.912-12.168 9.136 8.56 19.68 15.28 31.088 20.04v1.264l-41.304 6.352zm3.648 23.536c3.016-3.024 8.288-3.024 11.312 0a7.946 7.946 0 0 1 2.344 5.656 7.946 7.946 0 0 1-2.344 5.656L160 384l5.664 5.656c3.12 3.12 3.12 8.192 0 11.32-3.016 3.024-8.288 3.024-11.312 0L137.376 384l16.968-16.968zm75.8 56.968l-27.216 47.824L175.712 424h54.432zm-81.952 0l-27.216 47.824L93.76 424h54.432zm13.76 8.176L189.168 480h-54.432l27.216-47.824zm81.952 0L271.12 480h-54.44l27.224-47.824zm13.76-8.176h54.44l-27.224 47.832L257.664 424zm72.288.984l31.312 55.024H298.64l31.312-55.024zm11.704-46.64L336 384l5.664 5.656c3.12 3.12 3.12 8.192 0 11.32-3.016 3.024-8.288 3.024-11.312 0L313.376 384l16.976-16.968c3.016-3.024 8.288-3.024 11.312 0a7.971 7.971 0 0 1 2.336 5.656 7.946 7.946 0 0 1-2.344 5.656zm-22.624-22.624L290.744 384l24 24H180.288a23.896 23.896 0 0 0 3.416-16H200v-16h-16.408c.152-1.096.408-2.176.408-3.312 0-6.408-2.496-12.44-7.024-16.968-.024-.024-.056-.04-.088-.072l17.88-2.752C201.056 366.336 217.192 384 248 384s46.944-17.664 53.232-31.104l17.88 2.752c-.024.032-.056.048-.08.072zM288 342.832c-1.368 4.16-9.768 25.176-40 25.176-30.224 0-38.608-20.92-40-25.176v-1.728c7.808 1.856 15.84 2.904 24 2.904h32c8.16 0 16.192-1.048 24-2.904v1.728zM133.792 364.96L114.752 384l24 24h-48.68c8.536-19.448 24.336-34.832 43.72-43.04zm-52.608 69.296l26.04 45.752H66.88l14.304-45.752zM429.12 480h-40.336l7.576-13.304-13.904-7.912-7.424 13.048-27.216-47.824h54.44L391.904 442.2l13.904 7.912 9.024-15.864L429.12 480zm-23.184-72h-49.648a23.896 23.896 0 0 0 3.416-16H376v-16h-16.408c.152-1.096.408-2.176.408-3.312 0-3.248-.648-6.392-1.872-9.296 21.224 7.688 38.68 23.816 47.808 44.608zM344 296v-41.472a23.778 23.778 0 0 0 8-4.768 23.909 23.909 0 0 0 8 4.768V288a39.8 39.8 0 0 0 6.88 22.4c-2.136 1.024-4.472 1.6-6.88 1.6-8.824 0-16-7.176-16-16zm24-56c-4.408 0-8-3.592-8-8v-56h16v56c0 4.416-3.592 8-8 8zm-240 0c-4.408 0-8-3.592-8-8v-56h16v56c0 4.416-3.592 8-8 8zm-9.44-80l-3.2-16h265.28l-3.2 16H118.56zM371.984 16l-25.936 75.032-30.24-10.456L338.128 16h33.856zm-214.112 0l22.32 64.576-30.24 10.456L124.016 16h33.856zm-50.792 0l32.968 95.384 60.496-20.904L174.808 16H216v16h16V16h32v80h-32V48h-16v64h64V16h41.2l-25.736 74.48 60.496 20.904L388.928 16h17.32l-22.4 112H112.16L89.76 16h17.32zM136 312c-2.408 0-4.752-.584-6.88-1.6A39.781 39.781 0 0 0 136 288v-33.472a23.778 23.778 0 0 0 8-4.768 23.909 23.909 0 0 0 8 4.768V296c0 8.824-7.176 16-16 16zm31.608-12.152c.16-1.272.392-2.528.392-3.848v-41.472c9.288-3.312 16-12.112 16-22.528h-16c0 4.408-3.592 8-8 8s-8-3.592-8-8v-56h192v56c0 4.408-3.592 8-8 8s-8-3.592-8-8h-16c0 10.416 6.712 19.216 16 22.528V296c0 1.32.232 2.576.392 3.848C311.76 317.72 288.464 328 264 328h-32c-24.464 0-47.76-10.272-64.392-28.152z"/><path d="M288 240c13.232 0 24-10.768 24-24s-10.768-24-24-24-24 10.768-24 24 10.768 24 24 24zm0-32c4.408 0 8 3.592 8 8s-3.592 8-8 8-8-3.592-8-8 3.592-8 8-8zm-80 32c13.232 0 24-10.768 24-24s-10.768-24-24-24-24 10.768-24 24 10.768 24 24 24zm0-32c4.408 0 8 3.592 8 8s-3.592 8-8 8-8-3.592-8-8 3.592-8 8-8zm102.656 68.44l-13.312-8.872c-.136.2-14.032 20.44-49.344 20.44-34.824 0-48.8-19.656-49.376-20.496l-13.28 8.928c.752 1.128 18.88 27.56 62.656 27.56s61.904-26.432 62.656-27.56z"/></g></svg>