<svg xmlns="http://www.w3.org/2000/svg" viewBox="0 0 496.01 496.01" width="496.01" height="496.01"><path fill="#ffa64d" d="M224 487.99l-56-152-48-32-48 48.02 40 136zm48 0l56-152 48-32 48 48.02-40 136z"/><g fill="#333"><path d="M378.348 386.344L359.7 404.992c-1.496-11.8-11.488-20.992-23.696-20.992-13.232 0-24 10.768-24 24v56h56c13.232 0 24-10.768 24-24 0-12.208-9.192-22.2-20.992-23.696l18.648-18.648-11.312-11.312zM376.004 440c0 4.408-3.584 8-8 8h-40v-40c0-4.408 3.584-8 8-8s8 3.592 8 8v24h24c4.416 0 8 3.592 8 8zm-72-248c13.232 0 24-10.768 24-24s-10.768-24-24-24-24 10.768-24 24 10.768 24 24 24zm0-32c4.416 0 8 3.592 8 8s-3.584 8-8 8-8-3.592-8-8 3.584-8 8-8z"/><path d="M440.724 128L465.716 0H30.292l24.992 128h24.72v12.944c0 26.784-5.256 52.864-15.544 77.568-5.2 5.696-8.456 13.192-8.456 21.488 0 24.784 18.88 45.232 43.008 47.736 2.024 3.592 5.448 9.024 10.6 15.352L81.78 330.92c-16.616 16.624-25.776 38.72-25.776 62.224v102.864h384V393.144c0-23.504-9.16-45.6-25.776-62.224l-27.824-27.832c5.144-6.32 8.576-11.752 10.6-15.352 24.12-2.504 43-22.952 43-47.736 0-8.296-3.256-15.8-8.456-21.488-10.288-24.704-15.544-50.776-15.544-77.568V128h24.72zm-40.72-16V64h-16v48h-3.376c-4.032-7.672-12.624-27.408-12.624-56 0-21.352 17.896-29.48 24-31.624 6.104 2.152 24 10.272 24 31.624 0 28.376-8.632 48.28-12.648 56h-3.352zm-304-48v48h-3.376c-4.032-7.672-12.624-27.408-12.624-56 0-21.352 17.896-29.48 24-31.624 6.104 2.152 24 10.272 24 31.624 0 28.376-8.632 48.28-12.648 56h-3.352V64h-16zm144 0v48h-3.376c-4.032-7.672-12.624-27.408-12.624-56 0-21.376 17.928-29.496 24-31.632 6.096 2.152 24 10.272 24 31.632 0 28.376-8.632 48.28-12.648 56h-3.352V64h-16zm-95.872-.168C151.78 53.776 163.396 48 176.004 48c12.872 0 24.704 6.136 32.248 16.456.168 3.064.432 6 .76 8.856C199.74 67.488 188.348 64 176.004 64s-23.736 3.48-33 9.304c.352-3.128.648-6.336.816-9.712l.312.24zM176.004 80c22.056 0 40 14.352 40 32h-80c0-17.64 17.944-32 40-32zm112.128-16.168C295.78 53.776 307.396 48 320.004 48c12.872 0 24.704 6.136 32.248 16.456.168 3.064.432 6 .76 8.856C343.74 67.488 332.348 64 320.004 64s-23.736 3.48-33 9.304c.352-3.128.648-6.336.816-9.712l.312.24zM280.004 112c0-17.648 17.944-32 40-32s40 14.352 40 32h-80zm73.664-68.712C344.116 36.08 332.404 32 320.004 32c-12.408 0-24.08 4.064-33.656 11.32-3.344-12.656-11.4-21.56-19.792-27.32h106.896c-8.376 5.752-16.432 14.648-19.784 27.288zm-144 0C200.116 36.08 188.404 32 176.004 32c-12.408 0-24.08 4.064-33.656 11.32-3.344-12.656-11.4-21.56-19.792-27.32h106.896c-8.376 5.752-16.432 14.648-19.784 27.288zm-69.864 228.576c-2.184 7.248-1.96 15.056.984 22.16a33.029 33.029 0 0 0 20.072 18.696c4.656 1.552 9.456 1.96 14.096 1.432l-5.848 14.344c-28.832-13.088-44.688-31.304-52.2-42.312 8.968-2.504 16.864-7.552 22.896-14.32zm51.92 43.528c4.04 6.192 10.008 10.952 17.136 13.328a32.61 32.61 0 0 0 10.336 1.672c7.456 0 14.696-2.584 20.52-7.144l.2 20.432c-21.872-.728-40.448-4.192-55.904-9.368l7.712-18.92zm64.2 28.304l-.208-20.952c8.568 7.032 20.392 9.648 31.424 5.976a33.035 33.035 0 0 0 16.504-12.28l7.736 18.056c-15.376 5.096-33.784 8.496-55.456 9.2zm70.416-14.92l-6.344-14.808c4.976.736 10.144.424 15.152-1.248a33.029 33.029 0 0 0 20.072-18.696c2.944-7.104 3.176-14.912.992-22.16 6.032 6.768 13.928 11.816 22.896 14.32-7.576 11.088-23.56 29.488-52.768 42.592zm22.784-67.328l-12.272 6.136 3.088 6.168a17.047 17.047 0 0 1 .496 14.152 17.035 17.035 0 0 1-10.352 9.648c-8.024 2.68-16.872-1.008-20.632-8.544l-6.288-12.576-14.312 7.16 3.088 6.168a17.047 17.047 0 0 1 .496 14.152 17.035 17.035 0 0 1-10.352 9.648c-8.016 2.672-16.864-1.016-20.632-8.544l-2.208-4.424h-22.472l-2.208 4.424c-3.768 7.528-12.6 11.216-20.632 8.544a17.013 17.013 0 0 1-10.352-9.648 17.077 17.077 0 0 1 .496-14.152l3.088-6.168-14.312-7.16-6.288 12.576c-3.76 7.528-12.608 11.232-20.632 8.544a17.013 17.013 0 0 1-10.352-9.648 17.077 17.077 0 0 1 .496-14.152l3.088-6.168-12.272-6.136c3.248-6.464 5.12-13.728 5.12-21.44v-112h191.992v112c0 7.704 1.872 14.976 5.12 21.44zM427.548 112h-6.504c4.952-11.568 10.96-30.768 10.96-56 0-19.632-10.488-32.48-21.448-40h35.736l-18.744 96zM49.716 16h35.736c-10.96 7.528-21.448 20.368-21.448 40 0 25.232 6.008 44.432 10.96 56H68.46L49.716 16zm22.288 224c0-8.824 7.176-16 16-16s16 7.176 16 16v8h16v-72h-16v36.448c-4.728-2.752-10.144-4.448-16-4.448-.928 0-1.8.2-2.712.272a216.232 216.232 0 0 0 10.712-67.328V128h40v112c0 17.648-14.352 32-32 32s-32-14.352-32-32zm0 153.144c0-19.224 7.496-37.312 21.088-50.912l27.368-27.368c19.16 18.464 51.664 39.024 103.544 43.984v121.16h-152v-86.864zm352 0v86.864h-152v-16h-16v16h-16v-120.16c2.64.08 5.272.16 8 .16s5.36-.08 8-.16v88.16h16v-89.16c51.872-4.96 84.384-25.52 103.544-43.984l27.368 27.368c13.592 13.6 21.088 31.68 21.088 50.912zm-32-121.144c-17.648 0-32-14.352-32-32V128h40v12.944a216.32 216.32 0 0 0 10.712 67.336c-.904-.08-1.784-.272-2.712-.272-5.856 0-11.272 1.696-16 4.448v-36.448h-16v72h16v-8c0-8.824 7.176-16 16-16s16 7.176 16 16c0 17.64-14.352 31.992-32 31.992z"/><path d="M192.004 192c13.232 0 24-10.768 24-24s-10.768-24-24-24-24 10.768-24 24 10.768 24 24 24zm0-32c4.416 0 8 3.592 8 8s-3.584 8-8 8-8-3.592-8-8 3.584-8 8-8zm123.144 48h-3.144v16h3.144a4.858 4.858 0 0 1 4.856 4.856c0 6.144-5 11.144-11.904 11.144-3.976 0-7.64-2.184-9.808-5.84-7.04-11.88-16.136-18.16-26.288-18.16-9.024 0-17.352 5.128-24 14.608-6.64-9.488-14.968-14.608-24-14.608-10.16 0-19.248 6.28-26.288 18.168-2.168 3.656-5.832 5.832-10.568 5.832-6.144 0-11.144-5-11.144-11.144A4.858 4.858 0 0 1 180.86 224h3.144v-16h-3.144c-11.504 0-20.856 9.36-20.856 20.856 0 14.968 12.168 27.144 27.904 27.144 9.688 0 18.496-5.12 23.568-13.68 2.28-3.848 6.944-10.32 12.52-10.32 6.712 0 12.096 9.232 14.104 13.2l2.296 4.56 15.432-.496 2.152-4.216c1.992-3.92 7.36-13.048 14.024-13.048 5.576 0 10.24 6.464 12.52 10.312C289.596 250.88 298.404 256 308.86 256c14.968 0 27.144-12.176 27.144-27.144 0-11.496-9.36-20.856-20.856-20.856zM160.004 384c-12.208 0-22.2 9.192-23.696 20.992l-18.648-18.648-11.312 11.312 18.648 18.648c-11.8 1.504-20.992 11.496-20.992 23.696 0 13.232 10.768 24 24 24h56v-56c0-13.232-10.768-24-24-24zm8 64h-40c-4.416 0-8-3.592-8-8s3.584-8 8-8h24v-24c0-4.408 3.584-8 8-8s8 3.592 8 8v40zM104 143.99h16v16h-16zm272 0h16v16h-16z"/></g></svg>