<svg xmlns="http://www.w3.org/2000/svg" viewBox="0 0 496 496" width="496" height="496"><path fill="#ffa64d" d="M248 408.008c81.368 0 101.168-68.352 103.688-78.656L304 312.008c0 30.928-25.072 48-56 48s-56-17.072-56-48l-47.688 17.344c2.52 10.304 22.32 78.656 103.688 78.656zM140.696 218.752a30.203 30.203 0 0 0-8.976 6.224l-3.72 3.72-3.72-3.72c-5.784-5.784-13.48-8.968-21.656-8.968-16.88 0-30.624 13.744-30.624 30.624 0 8.176 3.184 15.872 8.968 21.656L128 315.32l37.656-37.656-24.96-58.912zm252.68-2.76c-8.176 0-15.872 3.184-21.656 8.968l-3.72 3.72-3.72-3.72a30.658 30.658 0 0 0-8.88-6.184l-25.04 58.888 37.64 37.64 47.032-47.032c5.784-5.784 8.968-13.472 8.968-21.656 0-16.88-13.744-30.624-30.624-30.624z"/><path fill="#333" d="M468.312 496L424 396.312V176C424 78.952 345.048 0 248 0S72 78.952 72 176v220.312L27.688 496h440.624zM55.864 472H96c13.232 0 24-10.768 24-24v-18l26.664 50H52.312l3.552-8zM88 400v-.304l7.2-16.2L104 400v48c0 4.408-3.592 8-8 8H62.976l24.888-56H88zm232 80h-28.456L320 404.12V480zm-144 0v-75.888L204.456 480H176zm58.752 0L248 435.848l13.248 44.16h-26.496V480zm114.584 0l10.792-20.232-14.12-7.528L336 471V363.704c-6.664 9.856-15.832 20.056-28.512 28.192L276.4 474.824l-20.176-67.248c-2.72.168-5.344.432-8.224.432s-5.496-.272-8.224-.432L219.6 474.824l-31.096-82.92c-12.68-8.136-21.848-18.328-28.512-28.192v107.296L104.24 366.472c8.44-12.08 20.472-21.48 34.448-26.56l46.304-16.84c5.064 27.296 29.112 44.936 63.008 44.936s57.944-17.648 63.008-44.936l46.304 16.84c13.976 5.08 26.008 14.48 34.448 26.56l-37.208 69.776 14.12 7.528L376 430.008v18c0 13.232 10.768 24 24 24h40.136l3.552 8h-94.352V480zM296 216c0 4.408-3.592 8-8 8s-8-3.592-8-8 3.592-8 8-8 8 3.592 8 8zm-39.624-104h25.304c7.912 28.472 31.12 51.576 62.32 61.88v23.296l-24.832-7.64c-35.208-10.84-59.624-41.424-62.792-77.536zM208 208c4.408 0 8 3.592 8 8s-3.592 8-8 8-8-3.592-8-8 3.592-8 8-8zm-31.168-18.464L152 197.176v-23.424c7.576-2.504 14.856-5.648 21.536-9.688l-8.28-13.696c-4.168 2.52-8.648 4.576-13.256 6.4v-20.76c0-13.232 10.768-24 24-24h21.52c-4.08 11.568-11.368 22.048-21.528 30.664l10.344 12.2c13.888-11.768 23.456-26.488 27.992-42.864h25.304c-3.176 36.104-27.592 66.688-62.8 77.528zM344 156.792c-21.96-8.688-38.528-24.92-45.552-44.784H320c13.232 0 24 10.768 24 24v20.784zm0-52.584C337.296 99.128 329.04 96 320 96H176c-9.04 0-17.296 3.128-24 8.208V104c0-13.232 10.768-24 24-24h144c13.232 0 24 10.768 24 24v.208zM181.536 204.824c2.272-.696 4.472-1.512 6.664-2.344-2.64 3.856-4.2 8.504-4.2 13.52 0 13.232 10.768 24 24 24s24-10.768 24-24c0-13.04-10.464-23.632-23.432-23.944C226.288 180.448 240 163.888 248 144.472c8.008 19.408 21.712 35.968 39.432 47.584C274.464 192.368 264 202.96 264 216c0 13.232 10.768 24 24 24s24-10.768 24-24c0-5.016-1.56-9.672-4.2-13.528 2.192.832 4.392 1.648 6.664 2.344l29.24 8.992C340.672 264.04 298.968 304 248 304s-92.672-39.96-95.704-90.184l29.24-8.992zM248 320c17.192 0 33.424-4.008 48-10.96V312c0 29.52-25.856 40-48 40s-48-10.48-48-40v-2.96c14.576 6.952 30.808 10.96 48 10.96zm160.136 80l24.888 56H400c-4.408 0-8-3.592-8-8v-48l8.8-16.504 7.2 16.2V400h.136zM248 16c88.224 0 160 71.776 160 160v186.192c-10.336-17.096-26.32-30.456-45.224-37.328L312 306.4v-6.616c28.976-20.264 48-53.816 48-91.784V104c0-22.056-17.944-40-40-40H176c-22.056 0-40 17.944-40 40v104c0 37.96 19.024 71.52 48 91.784v6.616l-50.776 18.464C114.32 331.736 98.336 345.096 88 362.192V176c0-88.216 71.776-160 160-160z"/></svg>