<svg xmlns="http://www.w3.org/2000/svg" viewBox="0 0 512 512" width="512" height="512"><path fill="#515262" d="M265.29 509.372c-5.742 3.503-12.839 3.503-18.581 0-43.971-26.824-229.054-147.996-229.054-287.108 0-72.301 58.519-130.912 130.706-130.912 23.627 0 45.771 6.295 64.883 17.29 5.48 3.153 11.886-2.421 9.737-8.41a291.08 291.08 0 0 0-42.561-78.244C173.573 13.015 180.149 0 191.363 0h130.658c11.221 0 17.781 13.017 10.931 21.996a291.16 291.16 0 0 0-42.206 77.279c-2.161 5.955 4.156 11.538 9.653 8.474 18.732-10.434 40.279-16.398 63.241-16.398 72.186 0 130.706 58.61 130.706 130.912-.001 139.112-185.085 260.284-229.056 287.108z"/><path fill="#464655" d="M202.022 103.088c-146.849 81.312-8.918 325.174 55.264 408.86-3.635.268-7.318-.462-10.575-2.451C202.738 482.673 17.655 361.5 17.655 222.387c0-72.3 58.519-130.911 130.706-130.911 19.146 0 37.287 4.192 53.661 11.612zm29.341-83.844c8.452 70.259 8.085 90.25-13.538 90.25 3.791-.772 6.705-4.822 5.155-9.14a291.15 291.15 0 0 0-42.561-78.245c-6.847-8.972-.271-21.986 10.943-21.986h49.412c-9.863 0-10.255 12.1-9.411 19.12z"/></svg>